<?xml version="1.0" standalone="no"?>
<!DOCTYPE svg PUBLIC "-//W3C//DTD SVG 20010904//EN"
 "http://www.w3.org/TR/2001/REC-SVG-20010904/DTD/svg10.dtd">
<svg version="1.0" xmlns="http://www.w3.org/2000/svg"
 width="512.000000pt" height="512.000000pt" viewBox="0 0 512.000000 512.000000"
 preserveAspectRatio="xMidYMid meet">
<g transform="translate(0.000000,512.000000) scale(0.100000,-0.100000)"
fill="#000000" stroke="none">
<path d="M860 4629 c-25 -5 -77 -25 -117 -45 -128 -65 -226 -194 -253 -333
-13 -71 -13 -1070 0 -1142 5 -30 26 -86 45 -125 60 -124 199 -229 334 -254 72
-13 1071 -13 1142 0 184 35 345 196 379 379 13 71 13 1071 0 1142 -34 183
-195 344 -379 379 -66 12 -1086 12 -1151 -1z m1160 -30 c0 -6 4 -8 9 -5 4 3
26 -3 47 -13 21 -11 42 -17 46 -14 5 2 8 0 8 -4 0 -12 56 -44 64 -36 3 3 6 -1
6 -9 0 -9 8 -22 18 -29 16 -13 16 -12 3 6 -8 11 2 2 23 -20 65 -70 92 -123
111 -212 19 -87 22 -1052 4 -1148 -10 -53 -48 -151 -71 -180 -40 -53 -72 -84
-79 -79 -5 3 -9 0 -9 -5 0 -6 -5 -11 -11 -11 -6 0 -25 -11 -43 -25 -18 -14
-37 -25 -42 -25 -5 -1 -27 -9 -49 -20 -38 -18 -71 -19 -606 -19 -407 0 -575 3
-600 11 -108 37 -248 126 -233 149 3 5 -2 9 -11 9 -9 0 -13 5 -10 10 3 6 2 10
-3 10 -12 0 -72 138 -77 176 -9 68 -4 1101 5 1139 6 22 12 48 15 58 5 23 48
101 58 105 4 2 5 8 1 13 -3 5 2 9 11 9 9 0 14 4 11 8 -3 5 9 22 26 38 17 16
27 22 23 14 -5 -8 9 0 31 18 21 18 44 36 49 40 14 11 45 23 74 28 14 3 32 9
40 14 22 13 1161 11 1161 -1z"/>
<path d="M867 4323 c-38 -20 -53 -36 -72 -78 l-25 -52 0 -512 c0 -428 2 -517
15 -547 17 -41 75 -101 111 -115 15 -5 241 -9 543 -9 499 0 581 4 581 30 0 5
9 12 20 15 11 4 18 10 15 15 -3 4 2 11 11 14 8 3 12 10 9 16 -3 5 -2 10 3 10
28 0 32 76 32 571 0 482 -1 510 -20 553 -10 25 -24 46 -30 46 -6 0 -9 4 -6 9
3 4 -16 20 -43 35 l-49 26 -523 -1 -524 0 -48 -26z m1139 -29 c15 -11 37 -33
48 -48 21 -27 21 -38 21 -566 0 -528 0 -539 -21 -566 -11 -15 -33 -37 -48 -48
-27 -21 -38 -21 -566 -21 -528 0 -539 0 -566 21 -15 11 -37 33 -48 48 -20 27
-21 40 -24 539 -2 282 0 526 3 544 7 40 49 91 90 109 24 11 134 13 557 11 514
-2 527 -2 554 -23z"/>
<path d="M3100 4629 c-25 -5 -77 -25 -117 -45 -128 -65 -226 -194 -253 -333
-13 -71 -13 -1070 0 -1142 5 -30 26 -86 45 -125 60 -124 199 -229 334 -254 72
-13 1071 -13 1142 0 184 35 345 196 379 379 13 71 13 1071 0 1142 -34 183
-195 344 -379 379 -66 12 -1086 12 -1151 -1z m1160 -30 c0 -6 4 -8 9 -5 4 3
26 -3 47 -13 21 -11 42 -17 46 -14 5 2 8 0 8 -4 0 -12 56 -44 64 -36 3 3 6 -1
6 -9 0 -9 8 -22 18 -29 16 -13 16 -12 3 6 -8 11 2 2 23 -20 65 -70 92 -123
111 -212 19 -87 22 -1052 4 -1148 -10 -53 -48 -151 -71 -180 -40 -53 -72 -84
-79 -79 -5 3 -9 0 -9 -5 0 -6 -5 -11 -11 -11 -6 0 -25 -11 -43 -25 -18 -14
-37 -25 -42 -25 -5 -1 -27 -9 -49 -20 -38 -18 -71 -19 -606 -19 -407 0 -575 3
-600 11 -108 37 -248 126 -233 149 3 5 -2 9 -11 9 -9 0 -13 5 -10 10 3 6 2 10
-3 10 -12 0 -72 138 -77 176 -9 68 -4 1101 5 1139 6 22 12 48 15 58 5 23 48
101 58 105 4 2 5 8 1 13 -3 5 2 9 11 9 9 0 14 4 11 8 -3 5 9 22 26 38 17 16
27 22 23 14 -5 -8 9 0 31 18 21 18 44 36 49 40 14 11 45 23 74 28 14 3 32 9
40 14 22 13 1161 11 1161 -1z"/>
<path d="M3107 4323 c-38 -20 -53 -36 -72 -78 l-25 -52 0 -512 c0 -428 2 -517
15 -547 17 -41 75 -101 111 -115 15 -5 241 -9 543 -9 499 0 581 4 581 30 0 5
9 12 20 15 11 4 18 10 15 15 -3 4 2 11 11 14 8 3 12 10 9 16 -3 5 -2 10 3 10
28 0 32 76 32 571 0 482 -1 510 -20 553 -10 25 -24 46 -30 46 -6 0 -9 4 -6 9
3 4 -16 20 -43 35 l-49 26 -523 -1 -524 0 -48 -26z m1139 -29 c15 -11 37 -33
48 -48 21 -27 21 -38 21 -566 0 -528 0 -539 -21 -566 -11 -15 -33 -37 -48 -48
-27 -21 -38 -21 -566 -21 -528 0 -539 0 -566 21 -15 11 -37 33 -48 48 -20 27
-21 40 -24 539 -2 282 0 526 3 544 7 40 49 91 90 109 24 11 134 13 557 11 514
-2 527 -2 554 -23z"/>
<path d="M560 4546 c0 -2 7 -7 16 -10 8 -3 12 -2 9 4 -6 10 -25 14 -25 6z"/>
<path d="M2800 4546 c0 -2 7 -7 16 -10 8 -3 12 -2 9 4 -6 10 -25 14 -25 6z"/>
<path d="M860 2389 c-25 -5 -77 -25 -117 -45 -128 -65 -226 -194 -253 -333
-13 -72 -13 -1070 0 -1142 35 -184 196 -345 379 -379 72 -13 1071 -13 1142 0
184 35 345 196 379 379 13 71 13 1071 0 1142 -34 183 -195 344 -379 379 -66
12 -1086 12 -1151 -1z m1160 -30 c0 -6 4 -8 9 -5 4 3 26 -3 47 -13 21 -11 42
-17 46 -14 5 2 8 0 8 -4 0 -12 56 -44 64 -36 3 3 6 -1 6 -9 0 -9 8 -22 18 -29
16 -13 16 -12 3 6 -8 11 2 2 23 -20 65 -70 92 -123 111 -212 19 -87 22 -1052
4 -1148 -11 -61 -54 -164 -73 -177 -6 -4 -7 -8 -3 -8 4 0 2 -6 -5 -14 -7 -8
-17 -11 -23 -8 -5 3 -7 1 -2 -3 9 -11 -42 -65 -61 -65 -7 0 -20 -6 -27 -12
-34 -30 -45 -38 -45 -32 0 4 -8 0 -18 -9 -10 -10 -22 -14 -25 -11 -4 4 -14 1
-23 -7 -14 -12 -118 -14 -609 -14 -428 0 -599 3 -616 12 -25 12 -56 23 -64 22
-3 0 -13 7 -21 16 -9 8 -22 15 -30 15 -8 0 -14 5 -14 11 0 5 -4 7 -10 4 -5 -3
-10 1 -10 10 0 9 -4 14 -8 11 -5 -3 -22 9 -38 26 -16 17 -24 28 -18 25 6 -3
11 0 11 8 0 8 -4 12 -9 9 -4 -3 -15 2 -24 10 -21 22 -74 140 -79 179 -9 69 -4
1103 5 1142 6 22 12 48 15 58 5 23 48 101 58 105 4 2 5 8 1 13 -3 5 2 9 11 9
9 0 14 4 11 8 -3 5 9 22 26 38 17 16 27 22 23 14 -5 -8 9 0 31 18 21 18 44 36
49 40 14 11 45 23 74 28 14 3 32 9 40 14 22 13 1161 11 1161 -1z"/>
<path d="M867 2083 c-38 -20 -53 -36 -72 -78 l-25 -52 0 -512 c0 -428 2 -517
15 -547 17 -41 75 -101 111 -115 15 -5 241 -9 543 -9 499 0 581 4 581 30 0 5
9 12 20 15 11 4 18 10 15 15 -3 4 2 11 11 14 8 3 12 10 9 16 -3 5 -2 10 3 10
28 0 32 76 32 571 0 482 -1 510 -20 553 -10 25 -24 46 -30 46 -6 0 -9 4 -6 9
3 4 -16 20 -43 35 l-49 26 -523 -1 -524 0 -48 -26z m1139 -29 c15 -11 37 -33
48 -48 21 -27 21 -38 21 -566 0 -528 0 -539 -21 -566 -11 -15 -33 -37 -48 -48
-27 -21 -38 -21 -566 -21 -528 0 -539 0 -566 21 -15 11 -37 33 -48 48 -20 27
-21 40 -24 539 -2 282 0 526 3 544 7 40 49 91 90 109 24 11 134 13 557 11 514
-2 527 -2 554 -23z"/>
<path d="M3100 2389 c-25 -5 -77 -25 -117 -45 -128 -65 -226 -194 -253 -333
-13 -72 -13 -1070 0 -1142 35 -185 197 -346 382 -379 34 -7 214 -10 461 -8
392 3 407 4 433 24 53 39 69 71 69 134 0 63 -16 95 -69 134 -26 20 -43 21
-446 26 -403 5 -420 6 -446 26 -15 11 -37 33 -48 48 -21 27 -21 38 -21 566 0
528 0 539 21 566 11 15 33 37 48 48 27 21 38 21 566 21 528 0 539 0 566 -21
15 -11 37 -33 48 -48 20 -26 21 -43 26 -446 5 -403 6 -420 26 -446 39 -53 71
-69 134 -69 63 0 95 16 134 69 20 26 21 41 24 433 2 247 -1 427 -8 461 -33
185 -194 347 -379 382 -66 12 -1086 12 -1151 -1z m1160 -30 c0 -6 4 -8 9 -5 4
3 26 -3 47 -13 21 -11 42 -17 46 -14 5 2 8 0 8 -4 0 -12 56 -44 64 -36 3 3 6
-1 6 -9 0 -9 8 -22 18 -29 16 -13 16 -12 3 6 -8 11 2 2 23 -20 67 -73 92 -123
114 -227 15 -73 16 -130 12 -477 -4 -304 -8 -395 -18 -399 -6 -2 -10 -8 -6
-13 3 -5 0 -9 -6 -9 -6 0 -21 -9 -33 -21 -45 -41 -165 -8 -186 52 -7 21 -11
162 -11 420 0 363 -1 390 -20 433 -10 25 -24 46 -30 46 -6 0 -9 4 -6 9 3 4
-16 20 -43 35 l-49 26 -521 0 -521 0 -50 -26 c-41 -22 -55 -36 -75 -79 l-25
-52 0 -512 c0 -432 2 -517 15 -547 20 -48 89 -112 128 -119 18 -3 202 -5 410
-3 207 2 377 -1 377 -5 0 -4 6 -7 13 -6 14 3 67 -18 67 -26 0 -4 -6 -3 -12 1
-7 4 -1 -4 15 -19 22 -22 27 -34 27 -77 0 -46 -4 -54 -41 -91 l-41 -41 -442 4
c-315 2 -447 6 -461 15 -19 11 -50 23 -60 22 -3 0 -13 7 -21 16 -9 8 -22 15
-30 15 -8 0 -14 5 -14 11 0 5 -4 7 -10 4 -5 -3 -10 1 -10 10 0 9 -4 14 -8 11
-5 -3 -22 9 -38 26 -16 17 -24 28 -18 25 6 -3 11 0 11 8 0 8 -4 12 -9 9 -4 -3
-15 2 -24 10 -21 22 -74 140 -79 179 -9 69 -4 1103 5 1142 6 22 12 48 15 58 5
23 48 101 58 105 4 2 5 8 1 13 -3 5 2 9 11 9 9 0 14 4 11 8 -3 5 9 22 26 38
17 16 27 22 23 14 -5 -8 9 0 31 18 21 18 44 36 49 40 14 11 45 23 74 28 14 3
32 9 40 14 22 13 1161 11 1161 -1z"/>
<path d="M560 2306 c0 -2 7 -7 16 -10 8 -3 12 -2 9 4 -6 10 -25 14 -25 6z"/>
<path d="M2800 2306 c0 -2 7 -7 16 -10 8 -3 12 -2 9 4 -6 10 -25 14 -25 6z"/>
<path d="M4320 1076 c0 -2 8 -10 18 -17 15 -13 16 -12 3 4 -13 16 -21 21 -21
13z"/>
<path d="M4050 786 c0 -2 8 -10 18 -17 15 -13 16 -12 3 4 -13 16 -21 21 -21
13z"/>
</g>
</svg>
